<svg xmlns="http://www.w3.org/2000/svg" width="39" height="26" viewBox="0 0 39 26">
  <path id="Icon_awesome-newspaper" data-name="Icon awesome-newspaper" d="M37.375,4.5H5.958A1.625,1.625,0,0,0,4.333,6.125v.542H1.625A1.625,1.625,0,0,0,0,8.292V26.708A3.792,3.792,0,0,0,3.792,30.5H35.75A3.25,3.25,0,0,0,39,27.25V6.125A1.625,1.625,0,0,0,37.375,4.5ZM3.792,27.25a.542.542,0,0,1-.542-.542V9.917H4.333V26.708A.542.542,0,0,1,3.792,27.25Zm15.979-1.083H9.479a.813.813,0,0,1-.813-.812v-.542A.813.813,0,0,1,9.479,24H19.771a.813.813,0,0,1,.813.812v.542A.813.813,0,0,1,19.771,26.167Zm14.083,0H23.563a.813.813,0,0,1-.812-.812v-.542A.813.813,0,0,1,23.563,24H33.854a.813.813,0,0,1,.812.812v.542A.813.813,0,0,1,33.854,26.167Zm-14.083-6.5H9.479a.813.813,0,0,1-.813-.812v-.542a.813.813,0,0,1,.813-.813H19.771a.813.813,0,0,1,.813.813v.542A.813.813,0,0,1,19.771,19.667Zm14.083,0H23.563a.813.813,0,0,1-.812-.812v-.542a.813.813,0,0,1,.813-.813H33.854a.813.813,0,0,1,.812.813v.542A.813.813,0,0,1,33.854,19.667Zm0-6.5H9.479a.813.813,0,0,1-.813-.813V9.646a.813.813,0,0,1,.813-.812H33.854a.813.813,0,0,1,.812.813v2.708A.813.813,0,0,1,33.854,13.167Z" transform="translate(0 -4.5)" fill="#002c4e"/>
</svg>
