<svg xmlns="http://www.w3.org/2000/svg" width="37" height="28.333" viewBox="0 0 37 28.333">
  <path id="Icon_awesome-book-open" data-name="Icon awesome-book-open" d="M34.831,2.253c-3.52.2-10.517.913-14.836,3.516a.969.969,0,0,0-.467.833V29.613a1.017,1.017,0,0,0,1.5.853c4.444-2.2,10.871-2.8,14.049-2.967A1.987,1.987,0,0,0,37,25.56V4.195a2,2,0,0,0-2.169-1.942ZM17.005,5.769C12.687,3.166,5.69,2.45,2.17,2.253A2,2,0,0,0,0,4.195V25.561A1.986,1.986,0,0,0,1.928,27.5c3.179.164,9.609.766,14.053,2.969a1.014,1.014,0,0,0,1.491-.851V6.59A.949.949,0,0,0,17.005,5.769Z" transform="translate(0 -2.25)" fill="#002c4e"/>
</svg>
