<svg xmlns="http://www.w3.org/2000/svg" width="91" height="70.764" viewBox="0 0 91 70.764">
  <path id="Icon_awesome-home" data-name="Icon awesome-home" d="M44.292,20.612,15.167,44.6V70.49a2.528,2.528,0,0,0,2.528,2.528l17.7-.046a2.528,2.528,0,0,0,2.515-2.528V55.325A2.528,2.528,0,0,1,40.439,52.8H50.55a2.528,2.528,0,0,1,2.528,2.528V70.433A2.528,2.528,0,0,0,55.6,72.969l17.7.049a2.528,2.528,0,0,0,2.528-2.528V44.583L46.709,20.612A1.926,1.926,0,0,0,44.292,20.612ZM90.3,36.916,77.093,26.03V4.149a1.9,1.9,0,0,0-1.9-1.9H66.35a1.9,1.9,0,0,0-1.9,1.9V15.62L50.311,3.983a7.583,7.583,0,0,0-9.636,0L.687,36.916a1.9,1.9,0,0,0-.253,2.67l4.028,4.9a1.9,1.9,0,0,0,2.671.257L44.292,14.135a1.926,1.926,0,0,1,2.417,0L83.87,44.741a1.9,1.9,0,0,0,2.67-.253l4.028-4.9a1.9,1.9,0,0,0-.269-2.674Z" transform="translate(0.001 -2.254)" fill="#002c4e"/>
</svg>
