<?xml version="1.0" encoding="iso-8859-1"?>
<!-- Generator: Adobe Illustrator 16.0.0, SVG Export Plug-In . SVG Version: 6.00 Build 0)  -->
<!DOCTYPE svg PUBLIC "-//W3C//DTD SVG 1.1//EN" "http://www.w3.org/Graphics/SVG/1.1/DTD/svg11.dtd">
<svg version="1.1" id="Calque_1" xmlns="http://www.w3.org/2000/svg" xmlns:xlink="http://www.w3.org/1999/xlink" x="0px" y="0px"
	 width="50px" height="50px" viewBox="0 0 50 50" style="enable-background:new 0 0 50 50;" xml:space="preserve">
<path style="fill:#002D4F;" d="M46.166,25.203c-0.48,10.48-8.657,21.79-20.581,21.714c-13.197-0.083-21.877-9.55-21.877-21.542
	c0-11.993,8.427-21.647,21.877-21.885C39.167,3.25,46.708,13.375,46.166,25.203z"/>
<g>
	<g>
		<path style="fill:#FFFFFF;" d="M35.947,5.403C31.586,3.312,25.804,2.264,21.03,3.052c-4.688,0.778-8.799,3.353-11.841,6.964
			c-1.608,1.912-3.29,4.186-4.355,6.456c-3.513,7.485-2.536,16.107,2.549,22.606c4.931,6.304,12.799,9.521,20.709,8.535
			c3.729-0.465,7.35-1.811,10.417-3.984c3.171-2.247,5.37-5.336,6.904-8.872c3.038-7.011,3.265-15.476-0.937-22.068
			C42.411,9.445,39.386,7.051,35.947,5.403z M36.814,7.5c0,0,0.554,0.326,0.921,0.542c0.704,0.453,2.015,1.479,2.015,1.479
			l0.883,0.784c1.027,0.979,1.948,2.08,2.734,3.312c4.289,6.72,2.988,15.383-0.547,22.215c-3.627,7.011-10.883,10.785-18.601,10.537
			c-1.889-0.061-3.742-0.402-5.518-0.987l-0.626-0.214c-5.553-2.021-10.247-6.401-12.535-11.891
			c-2.586-6.21-1.527-13.132,1.93-18.772c3.28-5.353,8.673-8.989,14.996-10.029c4.251-0.699,8.292,0.198,12.114,1.875
			c0.767,0.338,1.514,0.715,2.23,1.13c0.003,0.011,0.003,0.021,0.007,0.031"/>
	</g>
	<g>
		<path style="fill:#FFFFFF;" d="M18.388,37.177c0.166-0.062,0.32-0.179,0.437-0.333c0.63-0.845,0.05-1.997-0.503-2.702
			c-0.147-0.19-0.421-0.132-0.553,0.037c-0.503,0.642-0.883,1.606-0.534,2.383c-0.729-0.396-1.445-0.812-2.118-1.33
			c0.317,0.072,0.673-0.034,0.864-0.386c0.346-0.642,0.475-1.39,0.553-2.109c0.054-0.468,0.222-1.059-0.042-1.477
			c-0.012-0.016-0.033-0.025-0.052-0.019c-0.484,0.148-0.739,0.726-1,1.128c-0.405,0.616-0.763,1.28-0.892,2.015
			c-0.025,0.16-0.007,0.301,0.04,0.422c-0.68-0.586-1.302-1.222-1.845-1.909c0.216,0.079,0.458,0.076,0.65-0.042
			c1-0.609,1.245-2.28,0.91-3.336c-0.025-0.072-0.09-0.116-0.168-0.081c-0.983,0.434-1.997,1.632-1.91,2.752
			c-0.497-0.738-0.908-1.531-1.214-2.385c0.095,0.067,0.211,0.101,0.354,0.072c1.171-0.247,2.11-2.023,2.089-3.156
			c0-0.069-0.076-0.111-0.136-0.092c-0.517,0.159-1.117,0.578-1.495,0.959c-0.394,0.396-0.934,0.885-1.053,1.456
			c-0.048-0.176-0.092-0.354-0.129-0.534c-0.186-0.857-0.263-1.688-0.257-2.502c0.208,0.551,1.011,0.871,1.501,0.195
			c0.568-0.779,1.236-1.777,1.267-2.78c0-0.023-0.021-0.043-0.044-0.038c-0.987,0.211-1.853,1.065-2.521,1.766
			c-0.088,0.093-0.145,0.188-0.186,0.284c0.06-1.06,0.269-2.083,0.577-3.079c0.117,0.525,0.823,0.952,1.469,0.677
			c0.952-0.409,1.569-1.119,2.175-1.872c0.163-0.202-0.005-0.577-0.299-0.557c-1.138,0.073-2.149,0.281-3.035,0.994
			c-0.03,0.023-0.054,0.048-0.077,0.073c0.266-0.734,0.581-1.455,0.938-2.165c0.041,0.127,0.126,0.24,0.239,0.299
			c0.757,0.396,1.634-0.081,2.283-0.521c0.187-0.125,1.087-0.646,0.826-0.986c-0.31-0.408-1.189-0.301-1.63-0.233
			c-0.386,0.058-0.807,0.163-1.146,0.364c0.179-0.32,0.363-0.643,0.55-0.96c0.015-0.002,0.031-0.002,0.05-0.009
			c0.233-0.082,0.459-0.058,0.678-0.192c0.179-0.108,0.31-0.261,0.441-0.419c0.276-0.331,0.528-0.735,0.748-1.104
			c0.196-0.328,0.686-1.418,0.16-1.672c-0.637-0.31-1.486,0.437-1.834,0.886c-0.287,0.371-0.599,0.765-0.724,1.224
			c-0.112,0.405-0.003,0.628,0.114,0.959c-0.344,0.502-0.664,1.02-0.963,1.548c0.006-0.574-0.351-1.138-0.521-1.684
			c-0.187-0.603-0.281-1.288-0.661-1.801c-0.055-0.072-0.191-0.088-0.255-0.02c-0.857,0.944-0.603,3.78,0.729,4.207
			c0.113,0.037,0.232,0.028,0.338-0.01c-0.374,0.732-0.699,1.487-0.963,2.259c-0.082-0.445-0.401-0.881-0.575-1.295
			c-0.309-0.721-0.472-1.513-0.858-2.201c-0.058-0.107-0.248-0.107-0.289,0.015c-0.275,0.759-0.135,1.638,0.082,2.397
			c0.184,0.639,0.383,1.586,1.159,1.807c0.085,0.025,0.18,0.018,0.258-0.014c-0.245,0.848-0.411,1.713-0.496,2.589
			c-0.224-0.412-0.601-0.797-0.836-1.126c-0.402-0.548-0.864-1.183-1.422-1.574c-0.084-0.056-0.209,0.024-0.2,0.121
			c0.079,0.829,0.526,1.669,0.874,2.413c0.273,0.591,0.514,1.356,1.295,1.306c0.088-0.007,0.163-0.038,0.23-0.082
			c-0.01,0.878,0.08,1.766,0.271,2.655c-0.316-0.343-0.734-0.612-1.045-0.947C8.583,27.19,8.206,26.65,7.603,26.27
			c-0.085-0.055-0.245-0.031-0.268,0.088c-0.199,0.934,0.022,1.768,0.559,2.55c0.463,0.673,1.472,1.501,2.314,0.96
			c0.072-0.047,0.129-0.104,0.174-0.166c0.264,0.833,0.621,1.608,1.061,2.335c-0.547-0.211-1.244-0.293-1.76-0.409
			c-0.326-0.072-0.647-0.133-0.966-0.232c-0.253-0.077-0.437-0.187-0.693-0.116c-0.017,0.007-0.037,0.023-0.041,0.044
			c-0.094,0.569,0.717,1.356,1.129,1.675c0.685,0.528,1.768,0.978,2.617,0.725c0.302-0.09,0.459-0.294,0.506-0.529
			c0.506,0.646,1.078,1.247,1.706,1.816c-1.149-0.173-2.438,0.037-3.562,0.242c-0.116,0.021-0.202,0.181-0.087,0.269
			c1.116,0.841,2.603,1.262,3.97,0.862c0.356-0.102,0.471-0.416,0.418-0.717c0.638,0.547,1.342,1.109,2.085,1.604
			c-0.536-0.024-1.067,0.122-1.579,0.292c-0.509,0.17-1.084,0.21-1.507,0.556c-0.027,0.023-0.027,0.062-0.007,0.092
			c0.354,0.493,1.04,0.653,1.595,0.826c0.688,0.215,1.519,0.242,2.148-0.134c0.359-0.212,0.485-0.651,0.382-1.018
			c0.728,0.385,1.483,0.671,2.243,0.775c0.221,0.032,0.301-0.274,0.139-0.393C19.606,37.854,19,37.507,18.388,37.177z"/>
		<path style="fill:#FFFFFF;" d="M42.81,26.27c-0.601,0.381-0.982,0.921-1.454,1.435c-0.308,0.335-0.731,0.604-1.046,0.947
			c0.189-0.89,0.279-1.777,0.273-2.655c0.065,0.044,0.141,0.075,0.232,0.082c0.779,0.05,1.017-0.715,1.293-1.306
			c0.348-0.744,0.79-1.583,0.873-2.413c0.01-0.097-0.117-0.177-0.199-0.121c-0.56,0.391-1.021,1.025-1.42,1.574
			c-0.242,0.329-0.619,0.715-0.84,1.126c-0.083-0.876-0.248-1.742-0.496-2.589c0.08,0.032,0.173,0.04,0.26,0.014
			c0.771-0.221,0.976-1.167,1.159-1.807c0.217-0.759,0.356-1.638,0.083-2.397c-0.044-0.122-0.232-0.122-0.292-0.015
			c-0.387,0.688-0.55,1.48-0.854,2.201c-0.176,0.414-0.494,0.85-0.578,1.295c-0.268-0.771-0.588-1.526-0.964-2.259
			c0.108,0.039,0.227,0.047,0.34,0.01c1.332-0.427,1.585-3.263,0.728-4.207c-0.062-0.068-0.198-0.052-0.252,0.02
			c-0.38,0.514-0.476,1.199-0.663,1.801c-0.169,0.546-0.527,1.11-0.52,1.684c-0.3-0.529-0.618-1.046-0.964-1.548
			c0.12-0.331,0.227-0.555,0.113-0.959c-0.125-0.459-0.437-0.853-0.726-1.224c-0.346-0.449-1.194-1.196-1.833-0.886
			c-0.522,0.254-0.033,1.344,0.163,1.672c0.218,0.37,0.472,0.773,0.749,1.104c0.129,0.158,0.261,0.311,0.44,0.419
			c0.22,0.134,0.446,0.111,0.676,0.192c0.019,0.006,0.034,0.006,0.05,0.009c0.188,0.317,0.372,0.64,0.552,0.96
			c-0.341-0.202-0.761-0.306-1.147-0.364c-0.441-0.068-1.319-0.175-1.629,0.233c-0.261,0.34,0.638,0.861,0.823,0.986
			c0.65,0.44,1.524,0.917,2.286,0.521c0.113-0.059,0.193-0.172,0.237-0.299c0.358,0.71,0.673,1.431,0.939,2.165
			c-0.026-0.025-0.047-0.049-0.079-0.073c-0.883-0.713-1.897-0.921-3.037-0.994c-0.29-0.02-0.46,0.355-0.297,0.557
			c0.606,0.753,1.223,1.463,2.177,1.872c0.643,0.274,1.347-0.152,1.469-0.677c0.308,0.996,0.517,2.019,0.575,3.079
			c-0.041-0.095-0.098-0.191-0.183-0.284c-0.672-0.7-1.535-1.554-2.523-1.766C37.28,23.38,37.26,23.4,37.26,23.423
			c0.032,1.002,0.702,2.001,1.267,2.78c0.491,0.676,1.293,0.355,1.503-0.195c0.007,0.813-0.072,1.645-0.256,2.502
			c-0.039,0.181-0.082,0.358-0.13,0.534c-0.12-0.571-0.66-1.061-1.053-1.456c-0.381-0.381-0.978-0.8-1.495-0.959
			c-0.062-0.02-0.133,0.022-0.133,0.092c-0.025,1.133,0.914,2.909,2.086,3.156c0.139,0.028,0.255-0.005,0.351-0.072
			c-0.303,0.854-0.713,1.646-1.211,2.385c0.088-1.12-0.929-2.318-1.911-2.752c-0.077-0.035-0.142,0.009-0.166,0.081
			c-0.335,1.056-0.089,2.727,0.911,3.336c0.188,0.118,0.434,0.121,0.647,0.042c-0.541,0.688-1.163,1.323-1.847,1.909
			c0.051-0.121,0.067-0.262,0.043-0.422c-0.129-0.734-0.486-1.398-0.89-2.015c-0.263-0.402-0.519-0.979-1.003-1.128
			c-0.02-0.007-0.037,0.003-0.05,0.019c-0.264,0.418-0.096,1.009-0.044,1.477c0.075,0.72,0.211,1.468,0.557,2.109
			c0.188,0.352,0.546,0.458,0.86,0.386c-0.673,0.518-1.391,0.934-2.119,1.33c0.347-0.776-0.033-1.741-0.533-2.383
			c-0.129-0.169-0.403-0.228-0.553-0.037c-0.552,0.705-1.135,1.857-0.505,2.702c0.118,0.154,0.272,0.271,0.44,0.333
			c-0.612,0.33-1.22,0.678-1.79,1.089c-0.166,0.118-0.083,0.425,0.137,0.393c0.758-0.104,1.514-0.391,2.246-0.775
			c-0.104,0.366,0.019,0.806,0.38,1.018c0.627,0.376,1.458,0.349,2.146,0.134c0.556-0.173,1.241-0.333,1.596-0.826
			c0.018-0.03,0.021-0.068-0.006-0.092c-0.426-0.346-0.999-0.386-1.51-0.556c-0.513-0.17-1.042-0.316-1.576-0.292
			c0.743-0.494,1.445-1.057,2.08-1.604c-0.05,0.301,0.066,0.615,0.421,0.717c1.37,0.399,2.855-0.021,3.968-0.862
			c0.118-0.088,0.033-0.247-0.087-0.269c-1.12-0.205-2.406-0.415-3.559-0.242c0.627-0.569,1.202-1.171,1.708-1.816
			c0.048,0.235,0.201,0.439,0.501,0.529c0.854,0.253,1.935-0.196,2.619-0.725c0.414-0.318,1.227-1.105,1.129-1.675
			c-0.004-0.021-0.022-0.037-0.044-0.044c-0.252-0.07-0.44,0.039-0.688,0.116c-0.32,0.1-0.643,0.16-0.967,0.232
			c-0.515,0.116-1.214,0.198-1.761,0.409c0.439-0.727,0.798-1.502,1.062-2.335c0.045,0.062,0.098,0.119,0.177,0.166
			c0.841,0.541,1.849-0.287,2.31-0.96c0.537-0.782,0.757-1.616,0.562-2.55C43.056,26.238,42.896,26.215,42.81,26.27z"/>
	</g>
</g>
</svg>
