<?xml version="1.0" encoding="iso-8859-1"?>
<!-- Generator: Adobe Illustrator 16.0.0, SVG Export Plug-In . SVG Version: 6.00 Build 0)  -->
<!DOCTYPE svg PUBLIC "-//W3C//DTD SVG 1.1//EN" "http://www.w3.org/Graphics/SVG/1.1/DTD/svg11.dtd">
<svg version="1.1" id="Calque_1" xmlns="http://www.w3.org/2000/svg" xmlns:xlink="http://www.w3.org/1999/xlink" x="0px" y="0px"
	 width="50px" height="50px" viewBox="0 0 50 50" style="enable-background:new 0 0 50 50;" xml:space="preserve">
<path style="fill:#002D4F;" d="M44.989,27.523c-0.046,9.637-8.098,20.014-19.248,19.944c-12.343-0.077-20.187-8.93-20.187-19.944
	c0-5.374,1.811-10.23,5.125-13.805c0.115-0.125-4.415-1.632-4.66-2.337C5.732,10.559,9.822,7.54,9.965,7.403
	c0.339-0.323,2.177,4.898,2.543,4.599c3.358-2.737,7.838-4.422,13.233-4.422C35.971,7.58,45.042,16.508,44.989,27.523z"/>
<g>
	<g>
		<path style="fill:#FFFFFF;" d="M24.907,18.25c0.243,0,0.441-0.198,0.441-0.441v-2.748c0-0.244-0.198-0.442-0.441-0.442
			s-0.438,0.198-0.438,0.442v2.748C24.469,18.051,24.664,18.25,24.907,18.25z"/>
		<path style="fill:#FFFFFF;" d="M24.907,37.392c-0.243,0-0.438,0.198-0.438,0.439v2.75c0,0.242,0.195,0.439,0.438,0.439
			s0.441-0.197,0.441-0.439v-2.75C25.349,37.59,25.15,37.392,24.907,37.392z"/>
		<path style="fill:#FFFFFF;" d="M18.911,16.548c-0.122-0.21-0.396-0.283-0.604-0.161c-0.21,0.122-0.283,0.393-0.161,0.603
			l1.373,2.38c0.121,0.21,0.392,0.283,0.604,0.163c0.211-0.122,0.283-0.393,0.162-0.604L18.911,16.548z"/>
		<path style="fill:#FFFFFF;" d="M30.296,36.271c-0.119-0.211-0.394-0.283-0.603-0.164c-0.212,0.122-0.284,0.394-0.164,0.605
			l1.375,2.38c0.121,0.211,0.393,0.282,0.604,0.161c0.211-0.121,0.281-0.392,0.163-0.604L30.296,36.271z"/>
		<path style="fill:#FFFFFF;" d="M16.457,22.431l-2.381-1.374c-0.208-0.122-0.48-0.048-0.604,0.162
			c-0.12,0.21-0.045,0.483,0.163,0.602l2.379,1.375c0.214,0.121,0.485,0.048,0.605-0.161C16.738,22.826,16.668,22.553,16.457,22.431
			z"/>
		<path style="fill:#FFFFFF;" d="M36.178,33.817l-2.379-1.373c-0.209-0.123-0.48-0.05-0.604,0.162
			c-0.12,0.21-0.048,0.481,0.164,0.602l2.381,1.375c0.207,0.121,0.479,0.049,0.602-0.16C36.464,34.211,36.39,33.939,36.178,33.817z"
			/>
		<path style="fill:#FFFFFF;" d="M15.337,27.821c0-0.245-0.198-0.441-0.443-0.441h-2.746c-0.245,0-0.441,0.196-0.441,0.441
			c0,0.243,0.196,0.442,0.441,0.442h2.746C15.139,28.264,15.337,28.064,15.337,27.821z"/>
		<path style="fill:#FFFFFF;" d="M34.478,27.821c0,0.243,0.199,0.442,0.443,0.442h2.745c0.246,0,0.444-0.199,0.444-0.442
			c0-0.245-0.198-0.441-0.444-0.441h-2.745C34.677,27.38,34.478,27.576,34.478,27.821z"/>
		<path style="fill:#FFFFFF;" d="M16.014,32.444l-2.379,1.373c-0.208,0.122-0.283,0.394-0.163,0.605
			c0.124,0.209,0.396,0.281,0.604,0.16l2.381-1.375c0.211-0.12,0.281-0.392,0.162-0.602C16.499,32.395,16.228,32.321,16.014,32.444z
			"/>
		<path style="fill:#FFFFFF;" d="M33.194,23.036c0.124,0.208,0.396,0.282,0.604,0.161l2.379-1.375
			c0.212-0.119,0.286-0.392,0.163-0.602s-0.395-0.284-0.602-0.162l-2.381,1.374C33.146,22.553,33.074,22.826,33.194,23.036z"/>
		<path style="fill:#FFFFFF;" d="M20.122,36.107c-0.212-0.119-0.482-0.047-0.604,0.164l-1.373,2.379
			c-0.122,0.212-0.049,0.482,0.161,0.604c0.208,0.121,0.482,0.05,0.604-0.161l1.373-2.38C20.405,36.501,20.333,36.229,20.122,36.107
			z"/>
		<path style="fill:#FFFFFF;" d="M31.509,16.388c-0.212-0.122-0.483-0.05-0.604,0.161l-1.375,2.38
			c-0.12,0.211-0.048,0.482,0.164,0.604c0.209,0.121,0.483,0.048,0.603-0.163l1.376-2.38C31.79,16.781,31.72,16.509,31.509,16.388z"
			/>
	</g>
	<polygon style="fill:#FFFFFF;" points="35.437,11.456 35.434,11.445 35.434,11.444 	"/>
	<g>
		<g>
			<path style="fill:#FFFFFF;" d="M17.339,41.948c3.061,1.465,7.114,2.199,10.462,1.646c3.291-0.541,6.172-2.352,8.307-4.883
				c1.128-1.34,2.306-2.935,3.053-4.526c2.465-5.252,1.777-11.296-1.786-15.854c-3.459-4.421-8.979-6.679-14.523-5.986
				c-2.615,0.324-5.154,1.268-7.306,2.793c-2.226,1.577-3.768,3.742-4.844,6.221c-2.129,4.917-2.288,10.856,0.657,15.478
				C12.806,39.112,14.929,40.791,17.339,41.948z M16.731,40.476c0,0-0.388-0.229-0.643-0.381c-0.497-0.317-1.415-1.035-1.415-1.035
				l-0.62-0.55c-0.719-0.687-1.364-1.461-1.918-2.325c-3.006-4.712-2.094-10.789,0.385-15.578c2.542-4.918,7.632-7.566,13.047-7.391
				c1.323,0.042,2.622,0.282,3.867,0.693l0.441,0.148c3.893,1.418,7.187,4.491,8.79,8.34c1.813,4.355,1.068,9.209-1.354,13.167
				c-2.302,3.753-6.083,6.304-10.516,7.033c-2.982,0.491-5.816-0.141-8.497-1.314c-0.538-0.238-1.062-0.502-1.563-0.793
				c-0.004-0.008-0.004-0.015-0.006-0.021"/>
		</g>
	</g>
	<path style="fill:#FFFFFF;" d="M24.214,16.907c0,4.002,0,7.409,0,11.409c0,0.943,1.461,0.943,1.461,0c0-4,0-7.407,0-11.409
		C25.675,15.966,24.214,15.966,24.214,16.907L24.214,16.907z"/>
	<path style="fill:#FFFFFF;" d="M18.29,3.128c4.574,0,9.148,0,13.723,0c0.943,0,0.943-1.462,0-1.462c-4.574,0-9.148,0-13.723,0
		C17.35,1.667,17.35,3.128,18.29,3.128L18.29,3.128z"/>
	<path style="fill:#FFFFFF;" d="M24.214,2.658c0,1.583,0,3.164,0,4.746c0,0.943,1.461,0.943,1.461,0c0-1.582,0-3.164,0-4.746
		C25.675,1.715,24.214,1.715,24.214,2.658L24.214,2.658z"/>
	<path style="fill:#FFFFFF;" d="M42.393,16.156c-1.877-2.945-4.625-5.12-7.749-6.616c-3.959-1.9-9.21-2.85-13.547-2.135
		c-3.191,0.529-6.089,1.977-8.504,4.05l-0.385-0.391c0.361-0.575,0.291-1.347-0.203-1.853l-1.081-1.096
		c0.128-0.188,0.199-0.412,0.199-0.646c0.003-0.309-0.114-0.601-0.33-0.82c-0.435-0.439-1.202-0.445-1.638-0.014l-3.967,3.906
		c-0.222,0.218-0.345,0.507-0.348,0.819c-0.002,0.31,0.117,0.602,0.334,0.82c0.378,0.386,1.021,0.446,1.466,0.154l1.081,1.098
		c0.477,0.485,1.272,0.577,1.85,0.23l0.455,0.462c-1.363,1.651-2.74,3.557-3.641,5.469c-3.189,6.8-2.302,14.63,2.317,20.531
		c4.477,5.726,11.622,8.648,18.808,7.754c3.388-0.424,6.675-1.646,9.462-3.62c2.878-2.042,4.877-4.846,6.269-8.059
		C46,29.833,46.208,22.143,42.393,16.156z M40.887,37.176c-3.293,6.369-9.883,9.796-16.894,9.569
		c-1.715-0.053-3.399-0.363-5.013-0.896l-0.567-0.192C13.37,43.82,9.105,39.844,7.029,34.856c-2.349-5.639-1.387-11.928,1.751-17.05
		c0.802-1.309,1.752-2.492,2.812-3.559l-1.982-2.211l-0.582,0.577c-0.1,0.099-0.246,0.231-0.474-0.002l-1.418-1.444l-0.393-0.522
		l2.536-2.462l1.892,1.85c0.127,0.129,0.126,0.346-0.003,0.472l-0.588,0.578l2.203,2.056c2.685-2.288,5.979-3.839,9.617-4.438
		c3.862-0.636,7.533,0.18,11.004,1.701c0.695,0.308,1.375,0.65,2.027,1.027c0.002,0.005,0.002,0.012,0.002,0.018
		c0.003,0.002,0.503,0.297,0.835,0.494c0.639,0.41,1.83,1.341,1.83,1.341l0.801,0.713c0.935,0.888,1.771,1.889,2.483,3.008
		C45.279,23.103,44.098,30.971,40.887,37.176z"/>
</g>
<path style="fill:#002D4F;" d="M5.488,15.99"/>
</svg>
