<svg xmlns="http://www.w3.org/2000/svg" width="47" height="33.621" viewBox="0 0 47 33.621">
  <path id="Icon_awesome-users-cog" data-name="Icon awesome-users-cog" d="M44.838,25.466a9,9,0,0,0,0-3.2l1.895-1.118a.549.549,0,0,0,.242-.638A11.325,11.325,0,0,0,44.537,16.2a.527.527,0,0,0-.661-.105l-1.895,1.118a8.58,8.58,0,0,0-2.71-1.6V13.381a.544.544,0,0,0-.419-.533,10.848,10.848,0,0,0-4.862,0,.544.544,0,0,0-.419.533v2.237a8.58,8.58,0,0,0-2.71,1.6L28.967,16.1a.529.529,0,0,0-.661.105,11.325,11.325,0,0,0-2.438,4.309.558.558,0,0,0,.242.638L28,22.269a9,9,0,0,0,0,3.2L26.11,26.585a.549.549,0,0,0-.242.638,11.382,11.382,0,0,0,2.438,4.309.527.527,0,0,0,.661.105l1.895-1.118a8.58,8.58,0,0,0,2.71,1.6v2.237a.544.544,0,0,0,.419.533,10.848,10.848,0,0,0,4.862,0,.544.544,0,0,0,.419-.533V32.117a8.58,8.58,0,0,0,2.71-1.6l1.895,1.118a.529.529,0,0,0,.661-.105,11.325,11.325,0,0,0,2.438-4.309.558.558,0,0,0-.242-.638Zm-8.409,2.042a3.641,3.641,0,1,1,3.562-3.641A3.605,3.605,0,0,1,36.429,27.508ZM7.051,16.662a4.805,4.805,0,0,0,0-9.608,4.805,4.805,0,0,0,0,9.608Zm16.452,2.4c.14,0,.272-.038.411-.045a13.893,13.893,0,0,1,2.666-4.444,2.866,2.866,0,0,1,2.123-.946,2.777,2.777,0,0,1,1.44.4l.58.345c.059-.038.118-.068.176-.105a8.459,8.459,0,0,0,.823-3.6,8.224,8.224,0,1,0-16.444-.008A8.314,8.314,0,0,0,23.5,19.064Zm7.726,14.6c-.169-.09-.338-.2-.5-.293a3.581,3.581,0,0,1-2.02.736,2.89,2.89,0,0,1-2.123-.946,13.762,13.762,0,0,1-2.952-5.224c-.786-2.59,1.829-3.731,1.895-3.776q-.011-.293,0-.585l-.58-.345a3.007,3.007,0,0,1-.72-.608c-.242.015-.477.045-.72.045a11.39,11.39,0,0,1-5.031-1.2h-.61A8.559,8.559,0,0,0,9.4,30.113v2.162a3.566,3.566,0,0,0,3.525,3.6H31.684a2.936,2.936,0,0,1-.455-1.524v-.691ZM12.713,20.46a4.636,4.636,0,0,0-3.312-1.4H4.7a4.758,4.758,0,0,0-4.7,4.8v2.4a2.374,2.374,0,0,0,2.35,2.4H7.19A11.009,11.009,0,0,1,12.713,20.46Z" transform="translate(0 -2.257)" fill="#002c4e"/>
</svg>
